# xmcd
#
# Track frame offsets: 
#        150
#        24462
#        48785
#        67837
#
# Disc length: 1120 seconds
#
# Revision: 0
# Processed by: cddbd v1.5.2PL0 Copyright (c) Steve Scherf et al.
# Submitted via: ExactAudioCopyFreeDBPlugin 1.0
#
DISCID=25045e04
DTITLE=Johnny Kemp - Just Got Paid [CDS)
DYEAR=1988
DGENRE=Funk
TTITLE0=Just Got Paid
TTITLE1=Just Got Paid (Dub Mix)
TTITLE2=Penthouse Lover
TTITLE3=Just Got Paid (Instrumental)
EXTD=
EXTT0=
EXTT1=
EXTT2=
EXTT3=
PLAYORDER=
